<svg width="105" height="88" viewBox="0 0 105 88" fill="none" xmlns="http://www.w3.org/2000/svg">
<path d="M34.6582 9.79688V83.7031H50.6543V9.79688H34.6582ZM5.12695 18.0469V50.7031H14.5605V18.0469H5.12695ZM37.5293 22H41.2207V77H37.5293V22ZM63.928 23.3217L54.6429 24.718L67.3218 83.9285L76.6069 82.5321L63.928 23.3217ZM18.252 26.2969V72.7031H30.9668V26.2969H18.252ZM75.9819 31.2262L70.3229 33.2497L71.4496 35.463L77.1086 33.4395L75.9819 31.2262ZM78.5576 36.285L72.8981 38.3084L74.0248 40.5216L79.6835 38.4983L78.5572 36.285H78.5576ZM81.1324 41.344L75.4735 43.367L95.9144 83.5218L101.573 81.4983L81.1326 41.344H81.1324ZM5.12695 53.7969V58.9531H14.5605V53.7969H5.12695ZM44.0918 55H47.7832V77H44.0918V55ZM5.12695 62.0469V83.7031H14.5605V62.0469H5.12695ZM18.252 75.7969V83.7031H30.9668V75.7969H18.252Z" fill="white"/>
</svg>
