<svg width="183" height="43" viewBox="0 0 183 43" fill="none" xmlns="http://www.w3.org/2000/svg">
<path d="M101.6 12.225C103.6 12.225 105.2 10.6 105.2 8.625C105.2 6.65 103.575 5.025 101.6 5.025C99.625 5.025 98 6.65 98 8.625C98 10.6 99.625 12.225 101.6 12.225ZM108.625 14.95V35H114.825V25.1C114.825 22.475 115.325 19.95 118.55 19.95C121.775 19.95 121.775 22.95 121.775 25.25V35H128V24C128 18.6 126.85 14.45 120.55 14.45C117.525 14.45 115.5 16.1 114.675 17.675H114.6V14.925H108.65L108.625 14.95ZM98.5 14.95H104.725V35H98.5V14.95Z" fill="#F8F8F8"/>
<path d="M13.3366 22.5H17.5033L19.1699 15.8333H13.3366V12.5C13.3366 10.7833 13.3366 9.16667 16.6699 9.16667H19.1699V3.56667C18.6266 3.495 16.5749 3.33333 14.4083 3.33333C9.88326 3.33333 6.66992 6.095 6.66992 11.1667V15.8333H1.66992V22.5H6.66992V36.6667H13.3366V22.5Z" fill="#F8F8F8"/>
<path d="M74.8667 10.3333C73.5833 10.9167 72.2 11.3 70.7667 11.4833C72.2333 10.6 73.3667 9.2 73.9 7.51667C72.5167 8.35 70.9833 8.93333 69.3667 9.26667C68.05 7.83333 66.2 7 64.1 7C60.1833 7 56.9833 10.2 56.9833 14.15C56.9833 14.7167 57.05 15.2667 57.1667 15.7833C51.2333 15.4833 45.95 12.6333 42.4333 8.31667C41.8167 9.36667 41.4667 10.6 41.4667 11.9C41.4667 14.3833 42.7167 16.5833 44.65 17.8333C43.4667 17.8333 42.3667 17.5 41.4 17V17.05C41.4 20.5167 43.8667 23.4167 47.1333 24.0667C46.0845 24.3537 44.9835 24.3936 43.9167 24.1833C44.3693 25.6041 45.2559 26.8473 46.4517 27.7382C47.6475 28.6291 49.0924 29.1228 50.5833 29.15C48.0561 31.1507 44.9233 32.2322 41.7 32.2167C41.1333 32.2167 40.5667 32.1833 40 32.1167C43.1667 34.15 46.9333 35.3333 50.9667 35.3333C64.1 35.3333 71.3167 24.4333 71.3167 14.9833C71.3167 14.6667 71.3167 14.3667 71.3 14.05C72.7 13.05 73.9 11.7833 74.8667 10.3333Z" fill="#F8F8F8"/>
<path d="M175.5 20.5V16.3333H173.416V20.5H169.25V22.5833H173.416V26.75H175.5V22.5833H179.666V20.5H175.5ZM156.75 20.5V24.6667H162.643C162.211 25.8844 161.412 26.9385 160.357 27.6845C159.302 28.4305 158.042 28.8318 156.75 28.8333C155.093 28.8311 153.504 28.1719 152.333 27.0003C151.161 25.8287 150.502 24.2403 150.5 22.5833C150.502 20.9264 151.161 19.338 152.333 18.1664C153.504 16.9947 155.093 16.3355 156.75 16.3333C158.243 16.3333 159.681 16.8683 160.798 17.8417L163.533 14.7C161.652 13.0643 159.242 12.1644 156.75 12.1667C153.988 12.1698 151.34 13.2682 149.387 15.2211C147.435 17.1739 146.336 19.8216 146.333 22.5833C146.336 25.3451 147.435 27.9928 149.387 29.9456C151.34 31.8985 153.988 32.9969 156.75 33C159.511 32.9969 162.159 31.8985 164.112 29.9456C166.065 27.9928 167.163 25.3451 167.166 22.5833V20.5H156.75Z" fill="white"/>
</svg>
