<svg width="157" height="103" viewBox="0 0 157 103" fill="none" xmlns="http://www.w3.org/2000/svg">
<path d="M79.5 13.5253C85.1359 13.5253 90.5409 15.6079 94.526 19.3151C98.5112 23.0222 100.75 28.0502 100.75 33.2929C100.75 38.5357 98.5112 43.5636 94.526 47.2708C90.5409 50.978 85.1359 53.0606 79.5 53.0606C73.8641 53.0606 68.4591 50.978 64.474 47.2708C60.4888 43.5636 58.25 38.5357 58.25 33.2929C58.25 28.0502 60.4888 23.0222 64.474 19.3151C68.4591 15.6079 73.8641 13.5253 79.5 13.5253ZM79.5 23.4091C76.6821 23.4091 73.9796 24.4504 71.987 26.304C69.9944 28.1576 68.875 30.6716 68.875 33.2929C68.875 35.9143 69.9944 38.4283 71.987 40.2819C73.9796 42.1355 76.6821 43.1768 79.5 43.1768C82.3179 43.1768 85.0204 42.1355 87.013 40.2819C89.0056 38.4283 90.125 35.9143 90.125 33.2929C90.125 30.6716 89.0056 28.1576 87.013 26.304C85.0204 24.4504 82.3179 23.4091 79.5 23.4091ZM79.5 58.0025C93.6844 58.0025 122 64.5753 122 77.7702V92.596H37V77.7702C37 64.5753 65.3156 58.0025 79.5 58.0025ZM79.5 67.3922C63.7219 67.3922 47.0938 74.6074 47.0938 77.7702V83.2063H111.906V77.7702C111.906 74.6074 95.2781 67.3922 79.5 67.3922Z" fill="#F8F8F8"/>
</svg>
