<svg width="105" height="88" viewBox="0 0 105 88" fill="none" xmlns="http://www.w3.org/2000/svg">
<path d="M92.6192 7.55331C89.4832 7.1006 86.3076 6.86757 83.1254 6.85664C72.2683 6.84918 61.6376 9.45841 52.5004 14.3733C43.3398 9.52295 32.7108 6.97776 21.8754 7.03998C18.6933 7.05091 15.5177 7.28393 12.3817 7.73664C11.3545 7.88507 10.4242 8.33599 9.75849 9.00822C9.09276 9.68044 8.73528 10.5298 8.75043 11.4033V55.4033C8.74106 55.9421 8.87348 56.4759 9.13827 56.9669C9.40307 57.4579 9.79372 57.894 10.2824 58.244C10.7712 58.5941 11.3459 58.8496 11.9659 58.9924C12.5858 59.1351 13.2356 59.1616 13.8692 59.07C20.1386 58.1602 26.5619 58.3112 32.7607 59.5139C38.9595 60.7167 44.8084 62.9469 49.9629 66.0733L50.4879 66.33H50.9692C51.4544 66.4994 51.9748 66.5866 52.5004 66.5866C53.0261 66.5866 53.5465 66.4994 54.0317 66.33H54.5129L55.0379 66.0733C60.1565 62.8771 65.9886 60.5745 72.1886 59.3023C78.3885 58.03 84.8302 57.8138 91.1317 58.6666C91.7652 58.7583 92.4151 58.7318 93.035 58.5891C93.6549 58.4463 94.2297 58.1908 94.7184 57.8407C95.2071 57.4906 95.5978 57.0546 95.8626 56.5636C96.1274 56.0726 96.2598 55.5387 96.2504 55V11C96.2049 10.1645 95.82 9.36725 95.1595 8.74035C94.499 8.11345 93.6027 7.69461 92.6192 7.55331ZM48.1254 56.2833C40.0312 52.7145 31.0214 50.8519 21.8754 50.8566H17.5004V14.19C18.9576 14.1196 20.4183 14.1196 21.8754 14.19C31.209 14.1813 40.3389 16.4768 48.1254 20.79V56.2833ZM87.5004 51.0033H83.1254C73.9794 50.9986 64.9697 52.8612 56.8754 56.43V20.79C64.662 16.4768 73.7919 14.1813 83.1254 14.19C84.5825 14.1196 86.0433 14.1196 87.5004 14.19V51.0033ZM92.6192 66.22C89.4832 65.7673 86.3076 65.5342 83.1254 65.5233C72.2683 65.5159 61.6376 68.1251 52.5004 73.04C43.3633 68.1251 32.7326 65.5159 21.8754 65.5233C18.6933 65.5342 15.5177 65.7673 12.3817 66.22C11.8122 66.2957 11.2662 66.4651 10.775 66.7183C10.2839 66.9715 9.85731 67.3036 9.51985 67.6955C9.18238 68.0873 8.94068 68.5313 8.80864 69.0017C8.67659 69.4721 8.65681 69.9598 8.75043 70.4366C8.97276 71.3888 9.63633 72.2283 10.5958 72.7713C11.5552 73.3142 12.7323 73.5163 13.8692 73.3333C20.1386 72.4236 26.5619 72.5745 32.7607 73.7773C38.9595 74.98 44.8084 77.2103 49.9629 80.3366C50.7039 80.7788 51.5909 81.0164 52.5004 81.0164C53.41 81.0164 54.297 80.7788 55.0379 80.3366C60.1924 77.2103 66.0414 74.98 72.2401 73.7773C78.4389 72.5745 84.8622 72.4236 91.1317 73.3333C92.2686 73.5163 93.4456 73.3142 94.4051 72.7713C95.3645 72.2283 96.0281 71.3888 96.2504 70.4366C96.344 69.9598 96.3243 69.4721 96.1922 69.0017C96.0602 68.5313 95.8185 68.0873 95.481 67.6955C95.1435 67.3036 94.717 66.9715 94.2258 66.7183C93.7347 66.4651 93.1887 66.2957 92.6192 66.22Z" fill="white"/>
</svg>
